<svg width="124" height="39" viewBox="0 0 124 39" fill="none" xmlns="http://www.w3.org/2000/svg">
<path d="M65.8524 25.6302C65.2208 27.1433 64.2742 28.5078 63.0742 29.6351C61.8342 30.7852 60.3806 31.6866 58.7937 32.2894C57.0496 32.9511 55.1947 33.2804 53.3268 33.2598H43.8496V8.11422H53.3268C55.1929 8.09345 57.0468 8.41603 58.7937 9.06554C60.3842 9.65855 61.8407 10.5565 63.0795 11.7077C64.2774 12.832 65.2238 14.1921 65.8577 15.7004C66.5177 17.2711 66.8497 18.9575 66.8335 20.6584C66.8461 22.3639 66.5125 24.0545 65.8524 25.6302ZM61.5105 17.2802C61.1055 16.2638 60.4992 15.3378 59.7274 14.5564C58.9359 13.7689 57.9865 13.1539 56.9404 12.751C55.7797 12.3061 54.5434 12.0857 53.2987 12.1018H48.2723V29.2758H53.2987C54.5418 29.2914 55.7769 29.0771 56.9404 28.6439C57.9844 28.2539 58.9339 27.6512 59.7274 26.8749C60.5015 26.102 61.1082 25.1811 61.5105 24.1685C61.945 23.0711 62.1613 21.9011 62.1476 20.7226C62.1608 19.5453 61.9445 18.3765 61.5105 17.2802Z" fill="#262626"/>
<path d="M84.0505 27.0815H83.9065L75.951 15.2995V33.265H71.5195V8.11426H76.2774L84.0154 20.0057L91.7515 8.11426H96.5094V33.265H92.0797V15.2283L84.0505 27.0815Z" fill="#262626"/>
<path d="M113.77 33.7382C111.59 33.7458 109.423 33.4034 107.354 32.7244C105.343 32.0525 103.469 31.0334 101.818 29.7142L104.693 26.6693C105.984 27.6655 107.403 28.4869 108.914 29.1118C110.503 29.7235 112.197 30.0242 113.902 29.9972C115.509 29.9972 116.808 29.6882 117.763 29.0806C118.718 28.473 119.232 27.6015 119.232 26.5339C119.239 26.0745 119.141 25.6194 118.946 25.2024C118.701 24.7525 118.337 24.3773 117.893 24.1174C117.246 23.7373 116.554 23.4382 115.832 23.2269C114.979 22.9543 113.854 22.6644 112.498 22.3693C111.097 22.0885 109.714 21.7297 108.354 21.2947C107.28 20.9637 106.265 20.4694 105.344 19.8296C104.572 19.2837 103.943 18.5636 103.508 17.729C103.091 16.9131 102.878 15.8993 102.878 14.7154C102.865 13.6609 103.114 12.6194 103.603 11.6826C104.096 10.7685 104.78 9.96846 105.609 9.3356C106.533 8.6456 107.579 8.13169 108.693 7.82009C109.977 7.45628 111.308 7.27794 112.643 7.29062C114.585 7.26547 116.519 7.54496 118.372 8.11868C120.026 8.66182 121.59 9.44331 123.014 10.4379L120.452 13.6564C119.239 12.8672 117.938 12.2205 116.575 11.7295C115.287 11.2727 113.929 11.0379 112.561 11.0351C111.032 11.0351 109.821 11.3528 108.963 11.976C108.105 12.5992 107.649 13.3978 107.649 14.3126C107.635 14.8004 107.742 15.2841 107.959 15.7222C108.229 16.1804 108.615 16.5601 109.081 16.8229C109.761 17.2172 110.49 17.5229 111.25 17.7325C112.152 18.0033 113.317 18.2915 114.714 18.5901C116.088 18.8931 117.443 19.2757 118.772 19.7358C119.815 20.0871 120.794 20.5998 121.675 21.2548C122.402 21.8061 122.995 22.5121 123.409 23.3206C123.82 24.1889 124.022 25.1396 124 26.0982C124.02 27.221 123.763 28.3317 123.251 29.334C122.75 30.2811 122.037 31.1023 121.166 31.7349C120.192 32.4247 119.098 32.9297 117.938 33.2243C116.578 33.5778 115.176 33.7506 113.77 33.7382V33.7382Z" fill="#262626"/>
<path d="M16.4974 38.0559V26.3485H16.436V28.3362C16.4379 29.7605 16.1226 31.1677 15.5126 32.4578C14.9027 33.7479 14.0129 34.8893 12.9066 35.8009L12.7996 35.8877L12.7803 35.9033C12.1924 36.3738 11.5517 36.7757 10.8708 37.1012C9.54185 37.7353 8.08502 38.0635 6.60956 38.0612H4.62988V16.4656C4.62988 16.292 4.62988 16.1184 4.64392 15.9171C4.64392 15.8789 4.65445 15.7435 4.65445 15.7435C4.65445 15.6115 4.672 15.4813 4.68429 15.3511C4.68429 15.3511 4.69657 15.2227 4.70008 15.1775C4.71939 15.004 4.74045 14.8304 4.76678 14.6568C4.76678 14.6116 4.78257 14.5665 4.79135 14.5231L4.80714 14.4346C4.86381 13.991 4.96553 13.5542 5.11076 13.1308C5.95564 10.2559 7.86761 7.80287 10.4636 6.26332C12.131 5.24587 14.0346 4.66904 15.992 4.58811H16.0885C16.264 4.57943 16.4395 4.57595 16.615 4.57422H28.2912V28.3362C28.2921 30.1114 27.8003 31.8527 26.8696 33.3706C26.7872 33.5042 26.7029 33.6362 26.6134 33.7646C26.4379 34.0215 26.2484 34.2733 26.0483 34.5128C25.6474 34.9927 25.2014 35.4339 24.7162 35.8304C22.9565 37.2653 20.7471 38.0503 18.4666 38.0507L16.4974 38.0559Z" fill="white"/>
<path d="M14.6164 26.3663H28.3056V4.5625H16.6417C13.45 4.5625 10.389 5.81662 8.13217 8.04898C5.87531 10.2813 4.60742 13.3091 4.60742 16.4661V16.4661C4.60673 17.7664 4.86515 19.0541 5.3679 20.2555C5.87065 21.457 6.60788 22.5487 7.53743 23.4681C8.46699 24.3876 9.57064 25.1168 10.7853 25.6141C11.9999 26.1114 13.3018 26.367 14.6164 26.3663Z" fill="url(#paint0_linear_9390_8746)"/>
<g style="mix-blend-mode:multiply">
<path d="M16.4678 38.0736H18.4597C21.0705 38.0736 23.5744 37.0478 25.4205 35.2217C27.2666 33.3956 28.3037 30.919 28.3037 28.3365V26.3662H16.4678V38.0736Z" fill="#226DF0"/>
</g>
<g style="mix-blend-mode:multiply">
<path d="M14.616 26.3658C11.9628 26.3658 9.41837 25.3232 7.54231 23.4676C5.66626 21.6119 4.6123 19.095 4.6123 16.4707V38.0732H6.599C7.89165 38.0732 9.17163 37.8213 10.3659 37.3319C11.5601 36.8426 12.6452 36.1253 13.5591 35.2211C14.4731 34.3169 15.198 33.2435 15.6925 32.0622C16.187 30.8808 16.4414 29.6147 16.4412 28.3361V26.3658H14.616Z" fill="url(#paint1_linear_9390_8746)"/>
</g>
<path d="M14.6158 26.3663H16.441C16.4407 23.2846 15.2118 20.3274 13.0208 18.1365C10.8299 15.9457 7.85375 14.6979 4.73846 14.6641C4.64661 15.2604 4.60084 15.8628 4.60157 16.466V16.466C4.60088 17.7668 4.85947 19.0549 5.36255 20.2567C5.86563 21.4585 6.60333 22.5504 7.53344 23.4699C8.46355 24.3894 9.56783 25.1186 10.7831 25.6155C11.9983 26.1125 13.3007 26.3676 14.6158 26.3663V26.3663Z" fill="#00B8FF"/>
<path d="M16.4678 14.6602V26.3658H28.3037C28.3032 23.2611 27.056 20.2838 24.8364 18.0886C22.6168 15.8934 19.6066 14.6602 16.4678 14.6602V14.6602Z" fill="url(#paint2_linear_9390_8746)"/>
<defs>
<linearGradient id="paint0_linear_9390_8746" x1="4.60742" y1="15.4644" x2="28.3039" y2="15.4644" gradientUnits="userSpaceOnUse">
<stop stop-color="#4AC4FF"/>
<stop offset="0.44" stop-color="#429FFF"/>
<stop offset="0.75" stop-color="#3D8AFF"/>
<stop offset="1" stop-color="#3377FF"/>
</linearGradient>
<linearGradient id="paint1_linear_9390_8746" x1="4.60704" y1="27.2685" x2="16.4412" y2="27.2685" gradientUnits="userSpaceOnUse">
<stop stop-color="#58C0FF"/>
<stop offset="0.12" stop-color="#4CBCFF"/>
<stop offset="0.71" stop-color="#15A8FF"/>
<stop offset="1" stop-color="#00A0FF"/>
</linearGradient>
<linearGradient id="paint2_linear_9390_8746" x1="16.4678" y1="20.5139" x2="28.3037" y2="20.5139" gradientUnits="userSpaceOnUse">
<stop stop-color="#0090FF"/>
<stop offset="0.34" stop-color="#0073FF"/>
<stop offset="0.71" stop-color="#0052E4"/>
<stop offset="1" stop-color="#003DD2"/>
</linearGradient>
</defs>
</svg>
